<?xml version="1.0" encoding="utf-8"?>
<!-- Generator: Adobe Illustrator 17.0.0, SVG Export Plug-In . SVG Version: 6.00 Build 0)  -->
<!DOCTYPE svg PUBLIC "-//W3C//DTD SVG 1.1//EN" "http://www.w3.org/Graphics/SVG/1.1/DTD/svg11.dtd">
<svg version="1.1" id="图层_1" xmlns="http://www.w3.org/2000/svg" xmlns:xlink="http://www.w3.org/1999/xlink" x="0px" y="0px"
	 width="163.391px" height="163.39px" viewBox="18.432 22.262 163.391 163.39"
	 enable-background="new 18.432 22.262 163.391 163.39" xml:space="preserve">
<g>
	<g transform="scale(0.1953125, 0.1953125)">
		<path fill="#D6D6D6" d="M815.545,170.285H209.757c-63.467,0-115.387,53.737-115.387,119.417v485.097
			c0,65.688,51.92,119.432,115.387,119.432h605.787c63.456,0,115.386-53.745,115.386-119.432V289.701
			C930.931,224.022,879,170.285,815.545,170.285z M518.894,794.375c-20.58,0-37.454-17.675-37.454-37.454
			c0-19.765,16.873-37.439,37.454-37.439c109.59,0,199.778-80.282,199.778-187.223c0-106.943-89.434-187.233-199.778-187.233
			c-110.351,0-199.297,104.084-199.297,211.363h72.395c32.765-0.048,26.339,2.23-1.72,45.294
			C363.847,642.2,280.722,776.165,280.722,776.165c-17.707,26.142-33.519,36.731-33.519,5.452V677.046c-0.054-0.786,0-7.242,0-8.044
			V532.257c0-146.66,120.572-266.499,271.676-266.672c151.12-0.173,274.709,119.589,274.709,266.672
			c-0.001,147.037-123.982,262.116-274.694,262.116L518.894,794.375z"/>
	</g>
</g>
</svg>
