<?xml version="1.0" standalone="no"?><!DOCTYPE svg PUBLIC "-//W3C//DTD SVG 1.1//EN" "http://www.w3.org/Graphics/SVG/1.1/DTD/svg11.dtd"><svg width="200" height="200" viewBox="0 0 200 200" version="1.1" xmlns="http://www.w3.org/2000/svg" xmlns:xlink="http://www.w3.org/1999/xlink"><defs><style type="text/css"><![CDATA[

]]></style></defs><g class="transform-group"><g transform="scale(0.1953125, 0.1953125)"><path d="M815.547 170.285h-605.789c-63.467 0-115.387 53.737-115.387 119.417v485.098c0 65.688 51.92 119.432 115.387 119.432h605.789c63.456 0 115.386-53.745 115.386-119.432v-485.098c0-65.679-51.931-119.417-115.386-119.417zM518.895 794.377c-20.58 0-37.454-17.675-37.454-37.454 0-19.765 16.873-37.439 37.454-37.439 109.59 0 199.778-80.282 199.778-187.223 0-106.943-89.434-187.233-199.778-187.233-110.351 0-199.298 104.084-199.298 211.364h72.395c32.765-0.048 26.339 2.23-1.72 45.294-26.424 40.516-109.549 174.481-109.549 174.481-17.707 26.142-33.519 36.731-33.519 5.452v-104.571c-0.054-0.786 0-7.242 0-8.044v-136.746c0-146.66 120.572-266.5 271.677-266.673 151.12-0.173 274.71 119.589 274.71 266.673-0.001 147.037-123.982 262.117-274.695 262.117z" fill="#272636"></path></g></g></svg>