<?xml version="1.0" encoding="utf-8"?>
<!-- Generator: Adobe Illustrator 17.0.0, SVG Export Plug-In . SVG Version: 6.00 Build 0)  -->
<!DOCTYPE svg PUBLIC "-//W3C//DTD SVG 1.1//EN" "http://www.w3.org/Graphics/SVG/1.1/DTD/svg11.dtd">
<svg version="1.1" id="图层_1" xmlns="http://www.w3.org/2000/svg" xmlns:xlink="http://www.w3.org/1999/xlink" x="0px" y="0px"
	 width="24px" height="24px" viewBox="69.696 69.695 24 24" enable-background="new 69.696 69.695 24 24" xml:space="preserve">
<g>
	<g transform="scale(0.1953125, 0.1953125)">
		<path fill="#D6D6D6" d="M462.771,365.108h-88.982c-9.322,0-16.949,7.893-16.949,17.541v71.254c0,9.649,7.626,17.543,16.949,17.543
			h88.982c9.321,0,16.949-7.894,16.949-17.543v-71.255C479.72,373.002,472.092,365.108,462.771,365.108z M419.197,456.779
			c-3.023,0-5.501-2.596-5.501-5.501c0-2.903,2.478-5.499,5.501-5.499c16.097,0,29.345-11.792,29.345-27.501
			c0-15.709-13.137-27.502-29.345-27.502c-16.209,0-29.274,15.289-29.274,31.046h10.634c4.813-0.007,3.869,0.328-0.253,6.653
			c-3.881,5.951-16.091,25.629-16.091,25.629c-2.601,3.84-4.923,5.395-4.923,0.801v-15.36c-0.008-0.115,0-1.064,0-1.182v-20.086
			c0-21.542,17.71-39.145,39.906-39.171c22.198-0.025,40.351,17.566,40.351,39.171C459.546,439.875,441.335,456.779,419.197,456.779
			L419.197,456.779z"/>
	</g>
</g>
</svg>
